<?xml version="1.0" standalone="no"?>
<!DOCTYPE svg PUBLIC "-//W3C//DTD SVG 20010904//EN"
 "http://www.w3.org/TR/2001/REC-SVG-20010904/DTD/svg10.dtd">
<svg version="1.0" xmlns="http://www.w3.org/2000/svg"
 width="512.000000pt" height="512.000000pt" viewBox="0 0 512.000000 512.000000"
 preserveAspectRatio="xMidYMid meet">
<metadata>
Created by potrace 1.14, written by Peter Selinger 2001-2017
</metadata>
<g transform="translate(0.000000,512.000000) scale(0.100000,-0.100000)"
fill="#000000" stroke="none">
<path d="M2350 5114 c-162 -19 -218 -28 -305 -45 -993 -199 -1795 -1001 -1994
-1994 -38 -192 -46 -277 -46 -515 0 -238 8 -323 46 -515 167 -836 769 -1552
1569 -1868 311 -123 578 -172 940 -172 238 0 323 8 515 46 993 199 1795 1001
1994 1994 38 192 46 277 46 515 0 238 -8 323 -46 515 -195 977 -972 1768
-1949 1985 -176 39 -294 51 -515 55 -121 2 -236 1 -255 -1z m560 -175 c497
-71 954 -296 1328 -653 303 -290 546 -709 652 -1126 99 -383 99 -817 0 -1200
-85 -335 -258 -673 -476 -932 -401 -476 -927 -767 -1544 -853 -74 -10 -185
-16 -310 -16 -390 0 -722 77 -1065 246 -722 356 -1207 1034 -1320 1845 -22
154 -22 466 0 620 63 452 237 858 513 1199 542 668 1369 992 2222 870z"/>
<path d="M2360 4634 c-85 -8 -275 -45 -365 -71 -254 -73 -497 -195 -708 -355
-108 -82 -296 -271 -376 -378 -35 -47 -67 -89 -71 -93 -11 -12 33 173 63 272
15 47 23 80 19 75 -5 -5 -35 -40 -69 -79 -269 -314 -444 -700 -510 -1125 -24
-159 -24 -482 0 -640 77 -493 288 -913 636 -1261 348 -348 768 -559 1261 -636
158 -24 481 -24 640 0 425 66 811 241 1125 510 39 34 74 64 79 69 5 4 -28 -4
-75 -19 -99 -30 -284 -74 -272 -63 4 4 46 36 93 71 107 80 296 268 378 376
206 271 339 573 404 918 19 102 22 154 22 350 0 197 -3 248 -22 355 -64 351
-199 656 -410 928 -36 46 -76 88 -89 93 -51 19 -103 -19 -103 -75 0 -14 23
-54 57 -97 199 -259 318 -520 390 -859 26 -123 26 -545 0 -675 -83 -415 -254
-743 -537 -1025 -282 -283 -610 -454 -1025 -537 -130 -26 -552 -26 -675 0
-339 72 -600 191 -859 390 -74 58 -104 67 -140 45 -16 -10 -25 -7 -54 15 -20
15 -46 41 -58 58 -18 26 -20 35 -11 50 22 35 13 66 -45 140 -199 259 -318 520
-390 859 -26 123 -26 545 0 675 83 415 254 743 537 1025 282 283 610 454 1025
537 130 26 552 26 675 0 339 -72 600 -191 859 -390 43 -34 83 -57 97 -57 56 0
94 52 75 103 -19 50 -248 210 -432 303 -303 152 -557 214 -899 219 -107 1
-215 1 -240 -1z"/>
<path d="M2512 4300 c-31 -30 -34 -48 -30 -239 3 -168 4 -173 27 -192 13 -10
36 -19 51 -19 15 0 38 9 51 19 23 19 24 24 27 192 2 95 1 183 -2 195 -9 33
-45 64 -76 64 -14 0 -36 -9 -48 -20z"/>
<path d="M1660 4063 c-28 -36 -23 -60 36 -161 39 -67 54 -84 82 -93 29 -10 38
-8 61 8 42 32 40 76 -10 164 -50 89 -71 109 -114 109 -25 0 -39 -7 -55 -27z"/>
<path d="M3352 4073 c-10 -10 -38 -51 -61 -92 -50 -88 -52 -132 -10 -164 23
-16 32 -18 61 -8 28 9 43 26 82 93 59 101 64 125 36 161 -26 32 -77 37 -108
10z"/>
<path d="M1563 3588 c-26 -12 -47 -59 -39 -85 3 -10 190 -202 414 -426 l408
-408 -14 -58 c-20 -82 1 -155 63 -216 84 -84 208 -94 304 -25 40 30 91 103 91
133 0 10 6 17 13 17 6 0 196 29 422 64 395 62 410 65 432 90 27 32 29 53 7 84
-31 45 -31 45 -470 -23 l-419 -65 -28 35 c-60 73 -155 105 -242 82 l-50 -14
-415 414 c-276 274 -422 413 -435 412 -11 0 -30 -5 -42 -11z m1052 -973 c50
-49 15 -135 -55 -135 -19 0 -40 9 -55 25 -50 49 -15 135 55 135 19 0 40 -9 55
-25z"/>
<path d="M1057 3460 c-32 -26 -37 -77 -9 -108 29 -33 161 -102 196 -102 60 0
93 66 56 112 -23 30 -151 107 -190 114 -17 4 -34 -2 -53 -16z"/>
<path d="M3955 3453 c-125 -66 -163 -102 -150 -145 12 -38 36 -58 71 -58 35 0
167 69 197 102 26 31 22 82 -9 107 -35 27 -49 26 -109 -6z"/>
<path d="M845 2628 c-48 -28 -59 -79 -25 -116 30 -31 48 -34 239 -30 168 3
173 4 192 27 24 30 24 72 0 102 -19 23 -23 24 -203 27 -127 1 -189 -2 -203
-10z"/>
<path d="M3890 2627 c-32 -16 -47 -58 -34 -94 5 -15 21 -33 34 -40 33 -17 352
-18 383 -1 63 33 63 103 0 136 -31 17 -350 16 -383 -1z"/>
<path d="M1130 1824 c-41 -24 -81 -51 -87 -61 -19 -24 -16 -77 5 -96 38 -34
66 -31 151 18 94 54 125 87 116 125 -19 74 -76 78 -185 14z"/>
<path d="M3827 1853 c-50 -56 -25 -99 94 -168 63 -36 87 -45 107 -40 41 10 62
34 62 70 0 43 -20 64 -108 114 -80 45 -129 52 -155 24z"/>
<path d="M1758 1300 c-30 -23 -107 -151 -114 -190 -9 -41 29 -80 75 -80 44 0
52 8 109 108 46 80 53 129 25 155 -31 27 -66 30 -95 7z"/>
<path d="M3300 1313 c-62 -23 -65 -75 -8 -175 57 -100 65 -108 109 -108 29 0
42 6 59 27 28 35 23 59 -30 151 -55 94 -87 121 -130 105z"/>
<path d="M2509 1251 c-23 -19 -24 -24 -27 -192 -4 -191 -1 -209 30 -239 41
-38 109 -14 124 44 3 12 4 100 2 195 -3 168 -4 173 -27 192 -13 10 -36 19 -51
19 -15 0 -38 -9 -51 -19z"/>
</g>
</svg>
