<?xml version="1.0" standalone="no"?>
<!DOCTYPE svg PUBLIC "-//W3C//DTD SVG 20010904//EN"
 "http://www.w3.org/TR/2001/REC-SVG-20010904/DTD/svg10.dtd">
<svg version="1.0" xmlns="http://www.w3.org/2000/svg"
 width="512.000000pt" height="512.000000pt" viewBox="0 0 512.000000 512.000000"
 preserveAspectRatio="xMidYMid meet">
<metadata>
Created by potrace 1.14, written by Peter Selinger 2001-2017
</metadata>
<g transform="translate(0.000000,512.000000) scale(0.100000,-0.100000)"
fill="#000000" stroke="none">
<path d="M425 4796 c-337 -337 -351 -355 -339 -423 9 -47 24 -66 191 -234
l164 -166 -35 -24 c-37 -24 -76 -89 -76 -125 0 -92 80 -174 167 -174 47 1 108
35 133 75 l23 36 31 -29 c68 -63 92 -82 109 -88 22 -7 22 -19 -2 -52 -24 -34
-121 -228 -154 -307 -34 -83 -83 -236 -102 -319 -24 -103 -8 -171 52 -228 117
-112 304 -54 347 108 42 152 52 184 82 259 l31 80 214 5 c127 3 225 10 240 17
14 6 43 31 65 55 50 55 177 182 232 232 74 66 76 76 78 296 2 107 3 202 3 212
1 22 109 66 279 114 140 39 173 60 209 129 20 37 26 128 11 163 -32 73 -96
125 -170 136 -41 6 -209 -33 -338 -79 -89 -32 -302 -132 -371 -175 l-49 -30
-14 29 c-9 16 -38 54 -66 84 l-51 56 30 16 c37 19 81 91 81 134 0 68 -49 138
-111 160 -36 13 -103 6 -136 -14 -16 -9 -40 -32 -53 -51 l-23 -35 -57 56 c-50
50 -57 61 -58 99 -4 92 -52 176 -156 274 -31 28 -63 52 -72 52 -8 0 -161 -146
-339 -324z"/>
<path d="M4189 4910 c-85 -17 -173 -55 -246 -104 -21 -15 -129 -117 -240 -227
l-203 -201 -83 36 c-175 75 -400 138 -467 130 -79 -9 -164 -89 -176 -166 -10
-60 4 -122 38 -167 37 -48 70 -65 176 -92 87 -23 175 -52 245 -82 l47 -21 0
-195 c0 -108 5 -213 11 -234 7 -26 28 -54 61 -85 91 -84 193 -186 228 -230 62
-76 86 -82 322 -82 l205 0 12 -27 c25 -55 51 -130 85 -250 39 -138 59 -170
126 -207 104 -57 227 -19 281 87 26 49 29 99 12 172 -8 33 -16 67 -18 75 -11
51 -81 244 -115 318 l-39 87 188 190 c207 209 234 242 279 331 165 328 27 731
-303 889 -49 24 -113 48 -140 54 -83 19 -194 19 -286 1z"/>
<path d="M2342 3395 c-290 -75 -516 -288 -605 -570 -25 -78 -29 -111 -32 -237
-5 -177 36 -324 129 -467 113 -176 266 -290 481 -359 72 -24 95 -26 235 -26
147 0 160 2 250 32 136 45 239 109 341 211 122 122 193 250 233 423 15 64 16
280 2 343 -61 269 -236 488 -481 601 -165 76 -375 95 -553 49z"/>
<path d="M662 2289 c-46 -14 -115 -85 -129 -134 -16 -51 -11 -101 23 -223 44
-163 130 -367 216 -516 16 -27 28 -49 26 -50 -2 -2 -19 -13 -38 -26 -19 -13
-53 -41 -74 -63 -23 -24 -42 -35 -44 -28 -9 26 -58 74 -89 87 -141 59 -278
-91 -207 -228 16 -31 60 -68 81 -68 10 0 0 -17 -25 -47 -98 -119 -136 -264
-106 -409 51 -253 310 -417 563 -358 72 16 173 68 210 108 30 32 35 32 49 2
17 -38 74 -75 123 -80 117 -12 208 100 171 211 -13 41 -70 103 -94 103 -6 0
13 26 43 58 30 32 59 66 65 77 10 18 12 18 58 -9 133 -78 312 -160 440 -201
123 -40 246 -66 283 -60 108 17 183 104 183 213 0 78 -75 172 -155 193 -138
38 -189 53 -260 81 -44 17 -84 34 -89 39 -5 4 -9 101 -10 216 -2 244 0 239
-107 334 -40 35 -93 86 -118 114 -112 121 -137 143 -174 153 -20 6 -122 10
-226 10 -104 0 -193 2 -198 5 -15 9 -73 169 -104 286 -30 112 -60 161 -119
194 -41 22 -122 30 -168 16z"/>
<path d="M4345 2281 c-61 -27 -101 -80 -125 -163 -25 -90 -76 -246 -96 -293
-12 -30 -19 -35 -47 -35 -428 -5 -430 -5 -486 -74 -28 -34 -181 -188 -247
-248 -58 -53 -64 -84 -64 -311 l0 -196 -44 -20 c-47 -20 -201 -70 -298 -96
-35 -9 -73 -28 -95 -48 -148 -130 -52 -374 144 -362 59 4 233 52 348 95 85 33
303 140 347 171 35 25 39 24 65 -14 12 -18 41 -52 64 -76 l42 -43 -29 -24
c-16 -13 -32 -23 -35 -24 -3 0 -14 -18 -24 -41 -41 -89 -11 -180 74 -223 69
-36 166 -11 206 52 11 17 22 31 25 31 3 1 78 -71 167 -158 103 -101 175 -163
196 -170 38 -13 82 -10 116 8 26 14 307 292 334 331 21 30 22 81 2 119 -14 28
-14 29 15 41 45 19 117 94 126 132 11 48 11 49 -3 93 -10 30 -45 72 -139 164
l-125 123 40 37 c48 44 64 81 62 139 -4 94 -87 164 -184 156 -46 -4 -112 -48
-127 -85 l-11 -27 -32 33 c-18 17 -54 49 -82 70 -27 21 -50 40 -50 44 0 3 30
65 66 136 111 218 204 501 192 590 -16 133 -168 220 -288 166z"/>
</g>
</svg>
