<?xml version="1.0" standalone="no"?>
<!DOCTYPE svg PUBLIC "-//W3C//DTD SVG 20010904//EN"
 "http://www.w3.org/TR/2001/REC-SVG-20010904/DTD/svg10.dtd">
<svg version="1.0" xmlns="http://www.w3.org/2000/svg"
 width="512.000000pt" height="512.000000pt" viewBox="0 0 512.000000 512.000000"
 preserveAspectRatio="xMidYMid meet">
<metadata>
Created by potrace 1.14, written by Peter Selinger 2001-2017
</metadata>
<g transform="translate(0.000000,512.000000) scale(0.100000,-0.100000)"
fill="#000000" stroke="none">
<path d="M2145 4954 c-225 -90 -419 -168 -430 -173 -11 -5 -186 -75 -390 -156
-203 -80 -383 -152 -400 -159 -16 -7 -226 -91 -465 -186 -239 -95 -439 -176
-443 -180 -5 -4 278 -122 628 -262 l636 -255 -83 -32 c-46 -18 -96 -39 -113
-46 -16 -7 -219 -88 -450 -180 -231 -91 -433 -172 -450 -179 -16 -8 -62 -26
-102 -41 -40 -15 -71 -31 -68 -34 2 -4 285 -119 629 -256 344 -138 626 -252
626 -255 0 -6 51 14 -650 -265 -327 -130 -599 -240 -603 -244 -4 -4 25 -20 65
-35 40 -16 87 -34 103 -41 17 -7 233 -94 480 -192 248 -99 459 -184 470 -188
11 -5 22 -9 25 -10 3 -1 16 -6 30 -12 99 -42 159 -10 -546 -292 -349 -140
-631 -257 -627 -261 4 -4 578 -235 1275 -514 l1268 -506 127 50 c71 28 137 55
148 60 11 5 530 213 1152 462 l1133 452 -183 73 c-100 40 -191 77 -202 82 -11
5 -215 87 -453 182 -238 94 -429 175 -425 179 4 4 288 119 631 256 342 136
622 250 622 253 -1 4 -284 119 -630 256 -347 138 -630 252 -630 255 0 3 282
117 626 255 344 137 627 252 629 255 2 4 -281 121 -630 260 l-635 254 458 183
c251 102 464 187 472 190 160 61 326 130 330 137 4 6 -2461 1001 -2530 1020
-8 3 -199 -69 -425 -160z"/>
</g>
</svg>
